<?xml version="1.0" encoding="utf-8"?>
<!-- Generator: Adobe Illustrator 16.0.3, SVG Export Plug-In . SVG Version: 6.00 Build 0)  -->
<!DOCTYPE svg PUBLIC "-//W3C//DTD SVG 1.1//EN" "http://www.w3.org/Graphics/SVG/1.1/DTD/svg11.dtd">
<svg version="1.1" id="Capa_1" xmlns="http://www.w3.org/2000/svg" xmlns:xlink="http://www.w3.org/1999/xlink" x="0px" y="0px"
	 width="13.286px" height="49.669px" viewBox="0 0 13.286 49.669" enable-background="new 0 0 13.286 49.669" xml:space="preserve">
<path fill="#FA0F0C" d="M13.286,49.334c0.008-0.082,0-0.164,0-0.246V10.347c0-0.128-0.008-0.263,0-0.393
	c0.008-0.128-0.053-0.208-0.156-0.281c-1.912-1.415-3.834-2.833-5.75-4.249c-1.945-1.437-3.887-2.87-5.832-4.308
	C1.065,0.758,0.577,0.404,0.028,0c-0.008,0.19-0.02,0.281-0.02,0.374c0,13.126,0,26.252-0.008,39.376
	c0,0.283,0.088,0.477,0.299,0.625c1.863,1.352,3.736,2.695,5.6,4.044c1.59,1.153,3.176,2.315,4.762,3.478
	c0.752,0.551,1.502,1.109,2.26,1.652c0.082,0.057,0.193,0.164,0.305,0.102C13.341,49.579,13.271,49.438,13.286,49.334"/>
</svg>
