<svg xmlns="http://www.w3.org/2000/svg" viewBox="0 0 62.272 40.477">
  <defs>
    <style>
      .cls-1 {
        fill: #fff;
      }

      .cls-2, .cls-3 {
        stroke: none;
      }

      .cls-3 {
        fill: #182452;
      }
    </style>
  </defs>
  <g id="Group_454" data-name="Group 454" transform="translate(-62.333 -696.286)">
    <g id="Path_59" data-name="Path 59" class="cls-1" transform="translate(62.333 695.286)">
      <path class="cls-2" d="M 21.45990562438965 40.06360244750977 L 20.78928565979004 39.45310211181641 L 17.96723556518555 36.88405990600586 L 17.94406509399414 36.86305236816406 C 12.99998569488525 32.37979125976562 8.730134963989258 28.50791168212891 5.780135154724121 24.89907073974609 C 4.198245048522949 22.96388244628906 3.051885366439819 21.17809104919434 2.275555372238159 19.43965148925781 C 1.417245268821716 17.51760101318359 1.00000524520874 15.64157199859619 1.00000524520874 13.70436191558838 C 1.00000524520874 10.53807163238525 2.206475257873535 7.587851524353027 4.397155284881592 5.397161483764648 C 6.587845325469971 3.20647144317627 9.538064956665039 2.000001430511475 12.70435523986816 2.000001430511475 C 15.93908309936523 2.000001430511475 19.13726806640625 3.330860614776611 21.46246719360352 5.604032039642334 C 23.78767204284668 3.330860614776611 26.9858570098877 2.000001430511475 30.2205753326416 2.000001430511475 C 33.38686370849609 2.000001430511475 36.33708572387695 3.20647144317627 38.52777481079102 5.397161483764648 C 40.71846389770508 7.587851524353027 41.92493438720703 10.53807163238525 41.92493438720703 13.70436191558838 C 41.92493438720703 21.48484230041504 35.20530700683594 27.5911922454834 25.03388595581055 36.83429336547852 L 24.95705604553223 36.90410995483398 L 22.13284492492676 39.45564270019531 L 21.45990562438965 40.06360244750977 Z"/>
      <path class="cls-3" d="M 21.46246528625488 38.713623046875 L 24.28452491760254 36.16404342651367 C 34.30769348144531 27.05561065673828 40.92493438720703 21.06117057800293 40.92493438720703 13.70436191558838 C 40.92493438720703 7.709921360015869 36.21501541137695 3.000001430511475 30.2205753326416 3.000001430511475 C 26.83410453796387 3.000001430511475 23.58388519287109 4.576461315155029 21.46246528625488 7.067651748657227 C 19.34105491638184 4.576461315155029 16.0908260345459 3.000001430511475 12.70435523986816 3.000001430511475 C 6.709915161132812 3.000001430511475 2.00000524520874 7.709921360015869 2.00000524520874 13.70436191558838 C 2.00000524520874 21.06117057800293 8.61723518371582 27.05561065673828 18.64041519165039 36.14458084106445 L 21.46246528625488 38.713623046875 M 21.45735549926758 41.41358184814453 L 20.1161060333252 40.19258117675781 L 17.2940559387207 37.62354278564453 L 17.27232551574707 37.60383224487305 C 12.29858493804932 33.09368133544922 8.003125190734863 29.19858169555664 5.005895137786865 25.53196144104004 C 3.367175340652466 23.52726173400879 2.175405263900757 21.66782188415527 1.362465262413025 19.8474006652832 C 0.4456752836704254 17.79439163208008 5.286254690872738e-06 15.78499126434326 5.286254690872738e-06 13.70436191558838 C 5.286254690872738e-06 10.27096176147461 1.310485243797302 7.069621562957764 3.690055370330811 4.690051555633545 C 6.069615364074707 2.310491561889648 9.270955085754395 1.000001549720764 12.70435523986816 1.000001549720764 C 15.88400840759277 1.000001549720764 19.03011322021484 2.189441204071045 21.46246719360352 4.25269079208374 C 23.89482688903809 2.189441204071045 27.04092979431152 1.000001549720764 30.2205753326416 1.000001549720764 C 33.65397644042969 1.000001549720764 36.85531616210938 2.310491561889648 39.23488616943359 4.690051555633545 C 41.61444473266602 7.069621562957764 42.92493438720703 10.27096176147461 42.92493438720703 13.70436191558838 C 42.92493438720703 15.78143119812012 42.48077392578125 17.78756141662598 41.56707382202148 19.8373908996582 C 40.75680541992188 21.65517234802246 39.56887435913086 23.51212120056152 37.93539428710938 25.51435089111328 C 34.94774627685547 29.17646217346191 30.66519546508789 33.06816101074219 25.7064151763916 37.57437133789062 L 25.62958526611328 37.64418029785156 L 25.6274356842041 37.64613342285156 L 25.62527465820312 37.6480827331543 L 22.80321502685547 40.19766235351562 L 21.45735549926758 41.41358184814453 Z"/>
    </g>
    <g id="motorcycle" class="cls-1" transform="translate(88.575 650.345)">
      <path class="cls-2" d="M 6.80625057220459 85.41832733154297 C 4.687580585479736 85.41832733154297 2.705040454864502 84.58383941650391 1.223820567131042 83.06858825683594 C -0.2569994926452637 81.55374908447266 -1.045989513397217 79.55165100097656 -0.9978094696998596 77.43109130859375 C -0.9041894674301147 73.30886840820312 2.396670579910278 69.96192169189453 6.516910552978516 69.81144714355469 C 6.613010406494141 69.80792999267578 6.710440635681152 69.80615234375 6.806450366973877 69.80615234375 C 7.12507963180542 69.80615234375 7.442593097686768 69.82550811767578 7.757355690002441 69.86398315429688 C 7.489110469818115 69.73851776123047 7.176556587219238 69.67919921875 6.80625057220459 69.67919921875 L 3.828570604324341 69.67919921875 C 2.597120523452759 69.67919921875 1.576220512390137 68.67771911621094 1.552820563316345 67.44673156738281 C 1.541300535202026 66.83904266357422 1.772490501403809 66.26232147216797 2.203800439834595 65.82275390625 C 2.637720584869385 65.38053131103516 3.240390539169312 65.12689971923828 3.857280492782593 65.12689971923828 L 6.80625057220459 65.12689971923828 C 9.426511764526367 65.12689971923828 11.278883934021 65.80524444580078 12.58617877960205 67.25382232666016 L 14.73243427276611 67.25382232666016 C 14.2248592376709 66.92343902587891 13.88852024078369 66.35098266601562 13.88852024078369 65.70150756835938 L 13.88852024078369 64.85075378417969 C 13.88852024078369 63.83024215698242 14.71877098083496 62.9999885559082 15.73928070068359 62.9999885559082 L 19.99310111999512 62.9999885559082 C 20.78800964355469 62.99996948242188 21.5359001159668 63.42340850830078 21.94489097595215 64.10505676269531 L 22.45991706848145 64.96341705322266 L 23.5488395690918 63.75349044799805 C 23.97978019714355 63.27463912963867 24.5964298248291 62.9999885559082 25.24068069458008 62.9999885559082 L 27.64999008178711 62.9999885559082 C 28.90505981445312 62.9999885559082 29.92613983154297 64.02107238769531 29.92613983154297 65.27615356445312 L 29.92613983154297 66.97766876220703 C 29.92613983154297 68.23274230957031 28.90505981445312 69.25382232666016 27.64999008178711 69.25382232666016 L 25.03415679931641 69.25382232666016 L 25.48276329040527 70.00150299072266 C 26.05178451538086 69.87162017822266 26.63488960266113 69.80606842041016 27.22469139099121 69.80606842041016 L 27.28232002258301 69.80628204345703 C 29.3361701965332 69.82121276855469 31.27276039123535 70.63394927978516 32.73538970947266 72.09477233886719 C 34.19805145263672 73.55563354492188 35.01311874389648 75.49123382568359 35.03047180175781 77.54501342773438 C 35.04821014404297 79.64350891113281 34.24459075927734 81.61945343017578 32.76766204833984 83.10883331298828 C 31.29086112976074 84.59806823730469 29.32233238220215 85.41831970214844 27.22511863708496 85.41831970214844 C 27.22486305236816 85.41831970214844 27.22487640380859 85.41831970214844 27.2246208190918 85.41831970214844 C 27.1997013092041 85.41831970214844 27.17428970336914 85.41819763183594 27.14932060241699 85.41796875 C 25.09657096862793 85.39855194091797 23.16240119934082 84.58193969726562 21.70310020446777 83.11855316162109 C 20.68171119689941 82.09429168701172 19.97778129577637 80.83827972412109 19.64254760742188 79.47277069091797 C 19.60411834716797 79.52016448974609 19.56366539001465 79.56613159179688 19.52128028869629 79.61045837402344 C 19.09394073486328 80.05740356445312 18.49435043334961 80.31374359130859 17.87623977661133 80.31374359130859 L 14.13174819946289 80.31374359130859 C 13.01388072967529 83.35520935058594 10.10506343841553 85.41832733154297 6.80625057220459 85.41832733154297 Z M 24.13258934020996 76.59927368164062 C 24.0261287689209 76.92285919189453 23.97078132629395 77.26402282714844 23.97078132629395 77.61221313476562 C 23.97078132629395 79.4063720703125 25.43045043945312 80.86602783203125 27.22463035583496 80.86602783203125 C 27.28362083435059 80.86602783203125 27.34357070922852 80.86443328857422 27.40279960632324 80.86126708984375 C 28.19894981384277 80.81887054443359 28.95182037353516 80.48113250732422 29.52268981933594 79.9102783203125 C 30.09354972839355 79.33941650390625 30.43128967285156 78.58657836914062 30.47369003295898 77.79044342041016 C 30.52173042297363 76.88819885253906 30.2061595916748 76.03057861328125 29.5851001739502 75.37557220458984 C 29.19122505187988 74.96015930175781 28.71063232421875 74.6629638671875 28.18242454528809 74.50084686279297 L 29.8206901550293 77.23130035400391 C 30.07503128051758 77.65518951416016 30.14907073974609 78.15277099609375 30.02917098999023 78.63237762451172 C 29.90927124023438 79.11199188232422 29.60978126525879 79.51619720458984 29.18588066101074 79.77053833007812 L 28.45635032653809 80.208251953125 C 28.16863059997559 80.38086700439453 27.83965110778809 80.47209930419922 27.50496101379395 80.47209930419922 C 26.85811996459961 80.47209930419922 26.24967956542969 80.12774658203125 25.91710090637207 79.57341003417969 L 24.13258934020996 76.59927368164062 Z M 5.700269222259521 74.55189514160156 C 4.44886302947998 75.00552368164062 3.552420616149902 76.20613098144531 3.552420616149902 77.61221313476562 C 3.552420616149902 79.4063720703125 5.012080669403076 80.86602020263672 6.80625057220459 80.86602020263672 C 7.464619636535645 80.86602020263672 8.091615676879883 80.66658020019531 8.616981506347656 80.31374359130859 L 6.380870342254639 80.31374359130859 C 5.568410396575928 80.31374359130859 4.836240291595459 79.89584350585938 4.422310352325439 79.19586944580078 C 4.008320331573486 78.49578094482422 3.994880437850952 77.65274810791016 4.386370658874512 76.94075775146484 L 5.700269222259521 74.55189514160156 Z"/>
      <path class="cls-3" d="M 6.80625057220459 84.41832733154297 C 9.977580070495605 84.41832733154297 12.64165019989014 82.24919128417969 13.39718055725098 79.31374359130859 L 17.87623977661133 79.31374359130859 C 18.60326957702637 79.31374359130859 19.1837100982666 78.70646667480469 19.15110969543457 77.98032379150391 C 19.03849029541016 75.47483062744141 20.08281135559082 72.99990844726562 22.13862991333008 71.33235168457031 L 22.802490234375 72.43876647949219 C 21.33246994018555 73.696533203125 20.40456008911133 75.56958770751953 20.418701171875 77.65921020507812 C 20.44369125366211 81.35771942138672 23.46035003662109 84.38303375244141 27.15878105163574 84.41800689697266 C 27.18063163757324 84.41822052001953 27.20287704467773 84.41831970214844 27.22467994689941 84.41831970214844 C 31.00333023071289 84.41854858398438 34.06250762939453 81.33941650390625 34.03050994873047 77.55345916748047 C 33.99925231933594 73.85311126708984 30.9754695892334 70.83316040039062 27.27507019042969 70.80626678466797 L 27.27507019042969 70.80625152587891 C 27.25828552246094 70.80612945556641 27.2414493560791 70.80606842041016 27.22469329833984 70.80606842041016 C 26.45251846313477 70.80606842041016 25.71059608459473 70.93488311767578 25.01873016357422 71.17178344726562 L 23.26797103881836 68.25382232666016 L 27.64999008178711 68.25382232666016 C 28.35480117797852 68.25382232666016 28.92613983154297 67.68245697021484 28.92613983154297 66.97766876220703 L 28.92613983154297 65.27615356445312 C 28.92613983154297 64.57132720947266 28.35480117797852 63.9999885559082 27.64999008178711 63.9999885559082 L 25.24068069458008 63.9999885559082 C 24.87891960144043 63.9999885559082 24.53415107727051 64.15353393554688 24.29214096069336 64.42244720458984 L 22.29836082458496 66.63777923583984 L 21.08740043640137 64.61956024169922 C 20.85676956176758 64.23518371582031 20.44137001037598 63.99998092651367 19.99310111999512 63.9999885559082 L 15.73928070068359 63.9999885559082 C 15.26939010620117 63.9999885559082 14.88852024078369 64.38086700439453 14.88852024078369 64.85075378417969 L 14.88852024078369 65.70150756835938 C 14.88852024078369 66.17140197753906 15.26939010620117 66.55227661132812 15.73928070068359 66.55227661132812 L 19.27054023742676 66.55227661132812 L 20.29146003723145 68.25382232666016 L 12.11843013763428 68.25382232666016 C 11.17583084106445 67.02696228027344 9.729690551757812 66.12689971923828 6.80625057220459 66.12689971923828 L 3.857280492782593 66.12689971923828 C 3.14184045791626 66.12689971923828 2.539080619812012 66.71238708496094 2.552640438079834 67.42772674560547 C 2.565820455551147 68.12114715576172 3.132010459899902 68.67919921875 3.828570604324341 68.67919921875 L 6.80625057220459 68.67919921875 C 8.109190940856934 68.67919921875 8.863290786743164 69.25978088378906 9.347220420837402 69.99623870849609 L 8.746840476989746 71.08780670166016 C 8.131890296936035 70.90505981445312 7.480769634246826 70.80614471435547 6.806445598602295 70.80614471435547 C 6.722438812255859 70.80614471435547 6.638113975524902 70.80767822265625 6.553410530090332 70.81078338623047 C 2.970200538635254 70.94164276123047 0.08334051072597504 73.86911773681641 0.001930512138642371 77.45380401611328 C -0.08510948717594147 81.28516387939453 2.994660615921021 84.41832733154297 6.80625057220459 84.41832733154297 M 24.14723014831543 74.6800537109375 L 26.77461051940918 79.05893707275391 C 26.93411064147949 79.32479095458984 27.2159481048584 79.47210693359375 27.50496101379395 79.47210693359375 C 27.65394592285156 79.47210693359375 27.80481719970703 79.43296813964844 27.94186019897461 79.35075378417969 L 28.67139053344727 78.91304016113281 C 29.07427978515625 78.67131042480469 29.20493125915527 78.14867401123047 28.96319961547852 77.74578857421875 L 26.38134002685547 73.44267272949219 C 26.65877723693848 73.38661193847656 26.94112586975098 73.35838317871094 27.22415924072266 73.35838317871094 C 27.22431564331055 73.35838317871094 27.22445487976074 73.35838317871094 27.22461128234863 73.35838317871094 C 29.6468505859375 73.35838317871094 31.60275077819824 75.39347839355469 31.47227096557617 77.84362030029297 C 31.35741996765137 80.00021362304688 29.61260032653809 81.74500274658203 27.45596122741699 81.85986328125 C 27.37849617004395 81.86398315429688 27.30121803283691 81.86602783203125 27.22463417053223 81.86602783203125 C 24.87893676757812 81.86602783203125 22.97078132629395 79.95784759521484 22.97078132629395 77.61221313476562 C 22.97078132629395 76.47628021240234 23.41924095153809 75.44377899169922 24.14723014831543 74.6800537109375 M 6.80625057220459 73.35838317871094 C 7.031810283660889 73.35838317871094 7.25316047668457 73.37653350830078 7.469260692596436 73.41062164306641 L 5.262640476226807 77.42257690429688 C 4.795620441436768 78.27192687988281 5.411100387573242 79.31374359130859 6.380870342254639 79.31374359130859 L 10.70366096496582 79.31374359130859 C 10.04591083526611 80.81452941894531 8.546970367431641 81.86602020263672 6.80625057220459 81.86602020263672 C 4.460690498352051 81.86602020263672 2.552420616149902 79.95777130126953 2.552420616149902 77.61221313476562 C 2.552420616149902 75.26666259765625 4.460690498352051 73.35838317871094 6.80625057220459 73.35838317871094 M 6.80625057220459 86.41832733154297 C 4.416170597076416 86.41832733154297 2.179670572280884 85.47695922851562 0.5087305307388306 83.76762390136719 C -1.16180944442749 82.05870056152344 -2.051889419555664 79.80027770996094 -1.997549533843994 77.40837860107422 C -1.928603887557983 74.37233734130859 -0.317548543214798 71.70905303955078 2.086076736450195 70.17852783203125 C 1.888560175895691 70.05406951904297 1.703120112419128 69.90757751464844 1.532810568809509 69.74028015136719 C 0.9173604846000671 69.13571929931641 0.5693905353546143 68.32794189453125 0.5530005097389221 67.46574401855469 C 0.5363504886627197 66.58734130859375 0.8691304922103882 65.75515747070312 1.490020513534546 65.12238311767578 C 2.110790491104126 64.48973846435547 2.973620414733887 64.12689971923828 3.857280492782593 64.12689971923828 L 6.80625057220459 64.12689971923828 C 9.483236312866211 64.12689971923828 11.45940685272217 64.78097534179688 12.92706489562988 66.17037200927734 C 12.90171527862549 66.01779937744141 12.88852024078369 65.86116027832031 12.88852024078369 65.70150756835938 L 12.88852024078369 64.85075378417969 C 12.88852024078369 63.27883911132812 14.16737079620361 61.9999885559082 15.73928070068359 61.9999885559082 L 19.99310111999512 61.9999885559082 C 21.02109909057617 61.99996185302734 21.99445724487305 62.49196624755859 22.60846710205078 63.30351257324219 L 22.80554962158203 63.08452987670898 C 23.42580032348633 62.39530944824219 24.31339073181152 61.9999885559082 25.24068069458008 61.9999885559082 L 27.64999008178711 61.9999885559082 C 29.45647048950195 61.9999885559082 30.92613983154297 63.46966934204102 30.92613983154297 65.27615356445312 L 30.92613983154297 66.97766876220703 C 30.92613983154297 67.86161804199219 30.57429122924805 68.66487884521484 30.00324058532715 69.25480651855469 C 31.28314971923828 69.68154144287109 32.45792770385742 70.40431213378906 33.44206237792969 71.38722991943359 C 35.09162139892578 73.03475952148438 36.01086044311523 75.2186279296875 36.03044128417969 77.53656005859375 C 36.05044937133789 79.90361785888672 35.1439323425293 82.13253784179688 33.47788238525391 83.81272888183594 C 31.81178092956543 85.49297332763672 29.59117126464844 86.41831970214844 27.22509956359863 86.41831970214844 C 27.19651985168457 86.41831970214844 27.16777992248535 86.41819000244141 27.13956069946289 86.41792297363281 C 24.82305145263672 86.39601135253906 22.64076042175293 85.47503662109375 20.99501037597656 83.82466888427734 C 20.18974876403809 83.01715087890625 19.5594654083252 82.08168029785156 19.12387847900391 81.06535339355469 C 18.7309627532959 81.22737121582031 18.30671882629395 81.31374359130859 17.87623977661133 81.31374359130859 L 14.79921817779541 81.31374359130859 C 13.3806848526001 84.38311004638672 10.28566741943359 86.41832733154297 6.80625057220459 86.41832733154297 Z"/>
    </g>
  </g>
</svg>
